# xmcd CD database file
#
# Track frame offsets:
#	150
#	21695
#	36355
#	56767
#	75900
#	97065
#	120015
#	139090
#	159030
#	179232
#	193793
#	210478
#
# Disc length: 3213 seconds
#
# Revision: 0
# Processed by: cddbd v1.5.1PL0 Copyright (c) Steve Scherf et al.
# Submitted via: CDex 1.51
#
DISCID=a10c8b0c
DTITLE=Various Artist - Cool Intimate Jazz For Entertaining
DYEAR=2004
DGENRE=Jazz
TTITLE0=Summertime
TTITLE1=Ain't Misbehavin'
TTITLE2=And I Love Her
TTITLE3=Don't Get Around Much Anymore
TTITLE4=Harlem Nocturne
TTITLE5=Manha de Carnival
TTITLE6=Secret Love
TTITLE7=Misty
TTITLE8=Green Dolphin Street
TTITLE9=Norwegian Wood
TTITLE10=Take the "A" Train
TTITLE11='Round Midnight
EXTD=YEAR: 2004
EXTT0=
EXTT1=
EXTT2=
EXTT3=
EXTT4=
EXTT5=
EXTT6=
EXTT7=
EXTT8=
EXTT9=
EXTT10=
EXTT11=
PLAYORDER=
